#!OML:ASF \\sashay\E\Suitcase\Project 1\Capture day 1\Session 1\Male1.ASF
:FULLY-SPECIFIED
:DEGREES
783
root -1.96073 17.5194 9.83089 6.1772 6.99402 -1.84872
lowerback 2.01539 -2.30143 3.68663
upperback -0.225338 -2.93502 2.81007
thorax -1.39875 -1.48189 0.916037
lowerneck -14.23 -4.57703 -5.46732
upperneck 18.5481 -3.37279 -8.05714
head 8.10812 -2.78977 -2.16553
rclavicle -8.44835e-015 1.59028e-014
rhumerus -30.0762 -30.8234 -65.8469
rradius 15.3348
rwrist -2.37604
rhand -15.455 20.8613
rfingers 7.12502
rthumb 10.7259 -8.84485
lclavicle -8.44835e-015 1.59028e-014
lhumerus -36.2515 -4.03422 89.2294
lradius 34.0271
lwrist -5.17971
lhand 0.0486933 44.581
lfingers 7.12502
lthumb 25.637 72.8751
rfemur -7.13101 -2.82254 26.0496
rtibia 15.7355
rfoot -13.2243 -19.7155
rtoes 19.3452
lfemur -8.9175 -6.24773 -8.02874
ltibia 14.6912
lfoot -9.65349 5.09876
ltoes -11.8132
784
root -1.97399 17.5123 9.85434 6.13477 7.01138 -1.92752
lowerback 1.99296 -2.38267 3.59907
upperback -0.190655 -3.04704 2.91545
thorax -1.34154 -1.53612 1.07448
lowerneck -14.0834 -4.53406 -5.30178
upperneck 18.6108 -3.35329 -8.09943
head 8.09735 -2.77321 -2.20115
rclavicle -3.57812e-015 -2.62396e-014
rhumerus -30.6917 -30.6983 -65.48
rradius 15.1911
rwrist -2.67116
rhand -15.4767 20.692
rfingers 7.12502
rthumb 10.705 -9.01527
lclavicle -3.57812e-015 -2.62396e-014
lhumerus -36.5439 -3.99314 89.2713
lradius 34.3949
lwrist -4.92306
lhand -0.155382 44.0655
lfingers 7.12502
lthumb 25.4415 72.3876
rfemur -6.97038 -2.69566 26.2274
rtibia 15.694
rfoot -13.2681 -19.9561
rtoes 18.4379
lfemur -8.79919 -6.22399 -7.87992
ltibia 14.6609
lfoot -9.72454 5.07308
ltoes -12.0119
785
root -1.99398 17.5041 9.87629 5.99524 6.72535 -2.23785
lowerback 2.11996 -2.31478 3.66216
upperback -0.0542749 -2.95123 3.09861
thorax -1.26535 -1.4865 1.22589
lowerneck -14.2186 -4.5409 -5.39374
upperneck 18.6006 -3.30908 -8.20108
head 8.12108 -2.77091 -2.21959
rclavicle 1.3418e-014 -1.66979e-014
rhumerus -31.3879 -31.0979 -64.8577
rradius 15.0577
rwrist -2.14804
rhand -15.5604 20.6546
rfingers 7.12502
rthumb 10.6242 -9.0568
lclavicle 1.3418e-014 -1.66979e-014
lhumerus -36.2324 -3.89831 89.3469
lradius 34.1358
lwrist -5.19423
lhand 0.210084 44.441
lfingers 7.12502
lthumb 25.7916 72.7126
rfemur -6.76846 -1.80319 26.6419
rtibia 15.6096
rfoot -13.5276 -20.5152
rtoes 19.2308
lfemur -8.60633 -5.99266 -7.5075
ltibia 14.679
lfoot -9.86994 5.34068
ltoes -12.0129
786
root -1.98292 17.5079 9.9008 6.15746 6.94329 -1.87749
lowerback 1.89743 -2.48809 3.55488
upperback -0.058873 -3.19966 2.95192
thorax -1.14932 -1.60938 1.13272
lowerneck -14.1355 -4.44153 -5.18186
upperneck 18.4962 -3.17808 -8.49187
head 8.06408 -2.71789 -2.33045
rclavicle -3.21037e-014 -3.18055e-015
rhumerus -32.2374 -31.6288 -64.2817
rradius 14.8956
rwrist -1.3555
rhand -15.4537 20.0816
rfingers 7.12502
rthumb 10.7271 -9.62451
lclavicle -3.21037e-014 -3.18055e-015
lhumerus -36.3212 -4.42801 89.3917
lradius 34.1847
lwrist -4.45848
lhand 0.45675 44.4359
lfingers 7.12502
lthumb 26.0278 72.6731
rfemur -6.76715 -2.68873 26.2121
rtibia 15.5502
rfoot -13.3236 -19.9364
rtoes 18.0474
lfemur -8.63895 -6.17811 -7.91442
ltibia 14.6462
lfoot -9.8287 5.21821
ltoes -12.2499
787
root -2.00976 17.5046 9.92125 6.18698 6.83406 -1.98757
lowerback 1.94459 -2.45885 3.40836
upperback -0.072306 -3.16041 3.01041
thorax -1.17801 -1.58931 1.2754
lowerneck -13.9273 -4.43125 -5.1037
upperneck 18.4855 -3.18205 -8.58807
head 8.01939 -2.7195 -2.36876
rclavicle -5.53615e-014 -5.56597e-015
rhumerus -33.3643 -32.9259 -63.0864
rradius 14.5303
rwrist 0.148568
rhand -15.0891 20.1937
rfingers 7.12502
rthumb 11.0788 -9.49385
lclavicle -5.53615e-014 -5.56597e-015
lhumerus -36.4334 -4.51383 89.3638
lradius 34.3322
lwrist -4.38174
lhand 0.211862 44.6496
lfingers 7.12502
lthumb 25.7933 72.921
rfemur -6.76616 -1.74491 26.4668
rtibia 15.5348
rfoot -13.6861 -20.7235
rtoes 18.9559
lfemur -8.66352 -6.06125 -7.66174
ltibia 14.666
lfoot -10.5002 4.99356
ltoes -14.3786
788
root -2.00598 17.5078 9.9329 6.2664 7.13136 -1.86108
lowerback 2.1205 -2.66854 3.47551
upperback -0.196847 -3.42245 3.00196
thorax -1.41 -1.7231 1.25155
lowerneck -13.5435 -4.30873 -5.00072
upperneck 18.5309 -3.05208 -8.66746
head 7.96442 -2.65336 -2.38748
rclavicle -7.59357e-014 3.97569e-014
rhumerus -33.8875 -31.7528 -63.3204
rradius 14.5633
rwrist -1.32608
rhand -15.2436 20.3862
rfingers 7.12502
rthumb 10.9298 -9.30934
lclavicle -7.59357e-014 3.97569e-014
lhumerus -36.8936 -4.34521 89.3189
lradius 34.7073
lwrist -4.72306
lhand 0.560351 44.5087
lfingers 7.12502
lthumb 26.127 72.7313
rfemur -6.78858 -2.2884 26.3429
rtibia 15.5533
rfoot -13.5363 -20.6173
rtoes 18.4939
lfemur -8.82889 -6.14682 -7.78666
ltibia 14.6614
lfoot -11.6927 4.44417
ltoes -18.5277
789
root -1.99914 17.5025 9.92987 6.32711 7.3138 -2.00446
lowerback 2.47344 -2.74666 3.82974
upperback -0.386349 -3.48399 3.11396
thorax -1.81766 -1.76068 1.19861
lowerneck -13.113 -4.30121 -5.28744
upperneck 18.555 -3.01837 -8.65131
head 7.90454 -2.6485 -2.3208
rclavicle -1.02374e-014 -1.03368e-014
rhumerus -34.84 -32.1118 -62.3452
rradius 14.2854
rwrist -0.951977
rhand -15.5499 20.8137
rfingers 7.12502
rthumb 10.6343 -8.89723
lclavicle -1.02374e-014 -1.03368e-014
lhumerus -37.1001 -4.23654 89.5066
lradius 34.9663
lwrist -4.77805
lhand 0.626257 44.6202
lfingers 7.12502
lthumb 26.1901 72.8334
rfemur -6.88243 -2.83704 26.491
rtibia 15.5367
rfoot -13.2859 -20.2619
rtoes 17.6915
lfemur -8.92748 -6.31644 -7.59533
ltibia 14.6863
lfoot -10.4391 4.87728
ltoes -13.911
790
root -2.01177 17.5009 9.94356 6.37727 7.37185 -2.16088
lowerback 2.60266 -2.81351 3.97864
upperback -0.395562 -3.55849 3.16162
thorax -1.90649 -1.79982 1.17609
lowerneck -13.155 -4.2451 -5.25227
upperneck 18.6605 -2.9315 -8.67697
head 7.94812 -2.61246 -2.33022
rclavicle -8.94531e-016 -1.35174e-014
rhumerus -35.6686 -33.3049 -61.251
rradius 13.6126
rwrist 0.712753
rhand -15.4589 21.0437
rfingers 7.12502
rthumb 10.7221 -8.66266
lclavicle -8.94531e-016 -1.35174e-014
lhumerus -37.0749 -4.29902 89.4618
lradius 34.9167
lwrist -4.78654
lhand 0.707515 44.8459
lfingers 7.12502
lthumb 26.2679 73.0475
rfemur -6.8605 -2.51695 26.7418
rtibia 15.4297
rfoot -13.3864 -20.6608
rtoes 18.404
lfemur -9.003 -6.10148 -7.34463
ltibia 14.6831
lfoot -10.8236 4.66638
ltoes -15.5038
791
root -2.00617 17.5048 9.95528 6.44492 7.65164 -1.95524
lowerback 2.77134 -2.93813 4.05498
upperback -0.446852 -3.7096 3.08731
thorax -2.06534 -1.87809 1.07658
lowerneck -13.126 -4.29259 -5.19812
upperneck 18.768 -3.0139 -8.62659
head 7.97572 -2.64649 -2.33313
rclavicle 4.18442e-014 -2.46493e-014
rhumerus -36.0348 -31.4516 -62.0216
rradius 13.8296
rwrist -1.31019
rhand -15.5386 20.0559
rfingers 7.12502
rthumb 10.6453 -9.65448
lclavicle 4.18442e-014 -2.46493e-014
lhumerus -37.3383 -4.54777 89.4964
lradius 35.2767
lwrist -4.46204
lhand 0.429142 44.7443
lfingers 7.12502
lthumb 26.0014 72.9853
rfemur -6.78813 -3.16875 26.5019
rtibia 15.3371
rfoot -13.794 -20.2844
rtoes 19.4764
lfemur -9.06487 -6.32144 -7.56379
ltibia 14.689
lfoot -10.6482 4.61158
ltoes -14.0184
792
root -2.00811 17.5061 9.99377 6.47335 7.85015 -1.87547
lowerback 2.43418 -2.98553 4.06153
upperback -0.396861 -3.79676 3.08948
thorax -1.82603 -1.91896 1.05753
lowerneck -13.0588 -4.32881 -5.30647
upperneck 18.7265 -3.06229 -8.56287
head 7.95254 -2.66784 -2.29647
rclavicle 3.71727e-014 -2.14687e-014
rhumerus -36.7437 -31.2031 -61.6826
rradius 13.7381
rwrist -1.39874
rhand -15.6657 20.2061
rfingers 7.12502
rthumb 10.5227 -9.51055
lclavicle 3.71727e-014 -2.14687e-014
lhumerus -37.3962 -4.92028 89.7135
lradius 35.3248
lwrist -4.31371
lhand 0.445879 44.9061
lfingers 7.12502
lthumb 26.0174 73.1448
rfemur -6.54823 -3.54619 26.4186
rtibia 15.1486
rfoot -13.7332 -20.1058
rtoes 18.9596
lfemur -8.96933 -6.26942 -7.6231
ltibia 14.6568
lfoot -10.9857 4.39016
ltoes -13.9747
793
root -2.02494 17.5059 10.0019 6.59715 7.8 -2.12132
lowerback 2.36617 -3.02274 4.17384
upperback -0.27432 -3.85087 3.22984
thorax -1.66026 -1.9436 1.13303
lowerneck -13.6122 -4.31543 -5.30082
upperneck 18.7867 -2.9676 -8.67146
head 8.07395 -2.6464 -2.34193
rclavicle 9.74045e-015 -2.94201e-014
rhumerus -37.0564 -31.5058 -61.3917
rradius 13.6726
rwrist -0.95038
rhand -15.5944 19.0712
rfingers 7.12502
rthumb 10.5914 -10.6419
lclavicle 9.74045e-015 -2.94201e-014
lhumerus -37.1833 -4.991 89.7112
lradius 35.598
lwrist -4.32869
lhand 0.310778 44.6526
lfingers 7.12502
lthumb 25.888 72.9102
rfemur -6.70332 -2.91087 26.7879
rtibia 15.089
rfoot -13.8753 -20.6579
rtoes 19.7519
lfemur -9.11526 -6.23765 -7.24256
ltibia 14.5947
lfoot -10.655 4.40004
ltoes -14.1723
794
root -2.0195 17.5031 10.0313 6.59321 8.07392 -2.16754
lowerback 1.90786 -3.20257 4.45438
upperback -0.0350185 -4.12635 3.20442
thorax -1.18217 -2.07537 0.925489
lowerneck -13.7146 -4.30785 -5.31549
upperneck 18.5671 -2.9198 -8.88055
head 8.01857 -2.63878 -2.40079
rclavicle -3.93594e-014 5.08889e-014
rhumerus -37.2288 -31.4659 -61.4138
rradius 13.3498
rwrist -0.735219
rhand -15.156 18.8046
rfingers 7.12502
rthumb 11.0143 -10.8864
lclavicle -3.93594e-014 5.08889e-014
lhumerus -36.9976 -4.81013 89.5797
lradius 35.8093
lwrist -4.47194
lhand 0.2565 44.6978
lfingers 7.12502
lthumb 25.836 72.9631
rfemur -6.52064 -3.46813 26.8224
rtibia 14.9975
rfoot -13.8715 -20.29
rtoes 19.1483
lfemur -8.97037 -6.28335 -7.16809
ltibia 14.4459
lfoot -10.8718 4.21697
ltoes -14.7055
795
root -2.03026 17.4991 10.0265 6.76896 8.07067 -2.0963
lowerback 1.81263 -3.21887 4.42171
upperback 0.144908 -4.16527 3.14182
thorax -0.946658 -2.0902 0.867477
lowerneck -13.7277 -4.31612 -5.30232
upperneck 18.6047 -2.99711 -8.54765
head 8.03415 -2.64297 -2.3013
rclavicle -1.37161e-014 2.38542e-015
rhumerus -37.7633 -32.9458 -60.5393
rradius 12.872
rwrist 1.24205
rhand -15.484 18.7456
rfingers 7.12502
rthumb 10.6979 -10.962
lclavicle -1.37161e-014 2.38542e-015
lhumerus -36.6752 -5.17488 89.4624
lradius 35.9693
lwrist -4.34086
lhand 0.52822 44.5314
lfingers 7.12502
lthumb 26.0962 72.7585
rfemur -6.6751 -3.07291 26.8353
rtibia 14.9204
rfoot -14.1284 -20.5924
rtoes 19.5122
lfemur -9.25262 -6.32225 -7.15097
ltibia 14.5136
lfoot -11.4469 4.29665
ltoes -14.1235
796
root -2.02036 17.5084 10.0684 6.90092 8.40017 -1.60286
lowerback 1.27366 -3.37488 4.27197
upperback 0.288218 -4.42098 2.98113
thorax -0.503561 -2.21086 0.751943
lowerneck -13.641 -4.30193 -5.30247
upperneck 18.5454 -2.96358 -8.67968
head 7.9982 -2.63607 -2.33744
rclavicle -1.00386e-014 -2.46493e-014
rhumerus -38.1795 -32.7477 -60.3791
rradius 12.6035
rwrist 1.17223
rhand -15.4999 18.1161
rfingers 7.12502
rthumb 10.6826 -11.5923
lclavicle -1.00386e-014 -2.46493e-014
lhumerus -36.5626 -5.37621 89.5195
lradius 36.0779
lwrist -4.00703
lhand 0.00244254 44.8079
lfingers 7.12502
lthumb 25.5927 73.1083
rfemur -6.5357 -4.16033 26.2314
rtibia 14.8277
rfoot -13.8158 -20.0149
rtoes 18.395
lfemur -9.1923 -6.48724 -7.73914
ltibia 14.4824
lfoot -12.0091 4.09866
ltoes -15.986
